<svg width="192" height="52" viewBox="0 0 192 52" fill="none" xmlns="http://www.w3.org/2000/svg">
<g clip-path="url(#clip0_23_1072)">
<path d="M25.5302 4.64735C26.7781 4.64735 27.7897 3.63569 27.7897 2.38776C27.7897 1.13982 26.7781 0.128174 25.5302 0.128174C24.2822 0.128174 23.2706 1.13982 23.2706 2.38776C23.2706 3.63569 24.2822 4.64735 25.5302 4.64735Z" fill="#FF4747"/>
<path d="M37.534 31.7113C38.7851 31.7113 40.0361 32.2347 40.9553 33.1539V33.1794L41.2872 33.5113C42.4362 34.7113 42.9596 36.3837 42.717 38.0688C42.3851 40.456 40.4702 42.3709 38.0829 42.7284C37.8021 42.7667 37.5212 42.7922 37.2404 42.7922C35.8617 42.7922 34.5468 42.2816 33.5255 41.3496L33.168 40.9922C32.1978 40.022 31.6872 38.7199 31.7127 37.4177C31.7382 37.2135 31.7255 37.0092 31.7127 36.8177C31.4957 33.7794 29.0446 31.3156 25.9935 31.0985C25.8659 31.0858 25.7254 31.0858 25.585 31.0858C25.3042 31.0858 25.0361 31.0602 24.7552 31.0219C23.7467 30.8815 22.802 30.4602 22.0105 29.7964C22.0063 29.7921 22.002 29.7865 21.9977 29.7808C21.9892 29.7695 21.9807 29.7581 21.9722 29.7581L21.9212 29.707C21.8956 29.6687 21.7935 29.5794 21.7935 29.5794L21.5254 29.3113L21.4616 29.2347C21.3594 29.1198 21.2573 28.9921 21.1552 28.8645C21.0611 28.739 20.9755 28.605 20.8845 28.4624L20.8233 28.3666C20.5807 27.9709 20.1594 27.7411 19.7126 27.7411C19.2531 27.7411 18.8318 27.9836 18.602 28.3666C18.1296 29.1453 17.4786 29.7964 16.6999 30.2687C16.3169 30.4985 16.0743 30.9326 16.0743 31.3794C16.0743 31.8262 16.3041 32.2602 16.6999 32.49C18.3467 33.4858 19.3807 35.2986 19.3807 37.2262C19.3807 40.2773 16.9041 42.7539 13.853 42.7539C10.802 42.7539 8.32534 40.2773 8.32534 37.2262C8.32534 35.2986 9.34662 33.4858 11.0062 32.49C11.3892 32.2602 11.6317 31.8262 11.6317 31.3794C11.6317 30.9326 11.402 30.4985 11.0062 30.2687C9.35939 29.273 8.32534 27.4602 8.32534 25.5326C8.32534 23.6049 9.34662 21.7921 11.0062 20.7964C11.3892 20.5666 11.6317 20.1325 11.6317 19.6857C11.6317 19.2389 11.402 18.8049 11.0062 18.5751C9.35939 17.5793 8.32534 15.7665 8.32534 13.8389C8.32534 10.7878 10.802 8.31119 13.853 8.31119C16.9041 8.31119 19.3807 10.7878 19.3807 13.8389C19.3807 15.7665 18.3594 17.5793 16.6999 18.5751C16.3169 18.8049 16.0743 19.2389 16.0743 19.6857C16.0743 20.1325 16.3041 20.5666 16.6999 20.7964C17.4786 21.2687 18.1296 21.9198 18.602 22.6985C18.8318 23.0815 19.2531 23.324 19.7126 23.324C20.1722 23.324 20.5807 23.0815 20.8233 22.6985C20.9254 22.5198 21.0403 22.3538 21.1552 22.2006C21.2573 22.073 21.3595 21.9453 21.4743 21.8176L21.8446 21.4474C21.8629 21.4199 21.8813 21.4055 21.8949 21.3949L21.9025 21.3889C21.9047 21.3871 21.9066 21.3853 21.9084 21.3836C21.9339 21.3708 21.985 21.3198 21.985 21.3198C22.7892 20.6432 23.7467 20.2091 24.7552 20.0687C25.0233 20.0304 25.2914 20.0049 25.5595 20.0049C25.6563 20.0049 25.7419 20.0011 25.8203 19.9977C25.8866 19.9948 25.9478 19.9921 26.0063 19.9921C29.0574 19.7751 31.5084 17.324 31.7255 14.2729C31.7382 14.0814 31.7382 13.8772 31.7382 13.6729C31.6999 12.3708 32.2233 11.0686 33.168 10.124L33.551 9.74098C34.5468 8.82183 35.8744 8.29842 37.2532 8.29842C37.5212 8.29842 37.8021 8.32395 38.0829 8.36225C40.4702 8.7197 42.3723 10.6346 42.717 13.0218C42.9596 14.707 42.4362 16.3793 41.2744 17.6048L40.9681 17.9112C40.0489 18.8304 38.7978 19.3538 37.5468 19.3538H37.1255C33.9595 19.4176 31.317 21.9198 31.0744 25.0602V26.0049C31.3042 29.1453 33.9595 31.6475 37.1127 31.7113H37.534Z" fill="#FF4747"/>
<path d="M29.4141 37.2901C29.4141 39.4334 27.6766 41.1709 25.5332 41.1709C23.3899 41.1709 21.6524 39.4334 21.6524 37.2901C21.6524 35.1467 23.3899 33.4092 25.5332 33.4092C27.6766 33.4092 29.4141 35.1467 29.4141 37.2901Z" fill="#FF4747"/>
<path d="M37.1623 29.5411C39.3056 29.5411 41.0432 27.8036 41.0432 25.6602C41.0432 23.5169 39.3056 21.7793 37.1623 21.7793C35.019 21.7793 33.2814 23.5169 33.2814 25.6602C33.2814 27.8036 35.019 29.5411 37.1623 29.5411Z" fill="#FF4747"/>
<path d="M51.0653 25.6602C51.0653 26.9082 50.0536 27.9198 48.8057 27.9198C47.5578 27.9198 46.5461 26.9082 46.5461 25.6602C46.5461 24.4123 47.5578 23.4006 48.8057 23.4006C50.0536 23.4006 51.0653 24.4123 51.0653 25.6602Z" fill="#FF4747"/>
<path d="M2.25959 27.9198C3.50752 27.9198 4.51917 26.9082 4.51917 25.6602C4.51917 24.4123 3.50752 23.4006 2.25959 23.4006C1.01165 23.4006 0 24.4123 0 25.6602C0 26.9082 1.01165 27.9198 2.25959 27.9198Z" fill="#FF4747"/>
<path d="M27.7897 48.9327C27.7897 50.1806 26.7781 51.1923 25.5302 51.1923C24.2822 51.1923 23.2706 50.1806 23.2706 48.9327C23.2706 47.6847 24.2822 46.6731 25.5302 46.6731C26.7781 46.6731 27.7897 47.6847 27.7897 48.9327Z" fill="#FF4747"/>
<path d="M29.4141 14.0304C29.4141 16.1737 27.6766 17.9113 25.5332 17.9113C23.3899 17.9113 21.6524 16.1737 21.6524 14.0304C21.6524 11.887 23.3899 10.1495 25.5332 10.1495C27.6766 10.1495 29.4141 11.887 29.4141 14.0304Z" fill="#FF4747"/>
<path d="M73.0433 19.6602L75.0653 21.6326L71.0483 25.6587L75.0113 29.6607L73.0433 31.6602L69.0263 27.6882L65.0603 31.6331L63.0923 29.6336L67.0013 25.6587L63.0653 21.6867L65.0603 19.6602L69.0263 23.605L73.0433 19.6602Z" fill="black"/>
<g clip-path="url(#clip1_23_1072)">
<path d="M114.677 13.5337C114.822 13.7241 114.77 17.8867 114.77 18.4116L114.771 26.4942L114.77 34.8372C114.77 36.405 114.797 38.0755 114.752 39.6365C114.096 39.5587 112.667 39.599 111.937 39.5993L106.67 39.6007L88.9359 39.598L88.8585 39.5822C88.8875 39.3692 90.4696 37.8759 90.7405 37.6008L96.1525 32.1606L110.248 18.004L113.03 15.2134C113.55 14.6928 114.203 14.0753 114.677 13.5337Z" fill="#2A8288"/>
<path d="M142.533 11.6602H160.034L160.032 16.5937L148.586 16.6006C148.565 18.5455 148.555 20.4905 148.556 22.4356C152.563 22.561 157.283 21.8773 160.447 25.1205C161.522 26.2218 161.984 27.5469 162.29 29.0267C162.151 29.3785 162.233 32.2415 162.273 32.7895C162.273 32.7935 162.273 32.7975 162.273 32.8015C161.685 37.1083 157.914 39.3476 153.851 39.5331C151.04 39.6614 148.233 39.5643 145.419 39.5955C144.469 39.6061 143.478 39.6217 142.535 39.5694C142.45 36.1432 142.528 32.3606 142.528 28.9109L142.533 11.6602ZM148.556 34.783C149.382 34.8009 150.209 34.8081 151.035 34.8047C152.746 34.8049 154.146 34.8689 155.537 33.7563C156.895 32.3404 157.036 29.4116 155.597 28.0247C153.874 26.3652 150.721 27.0613 148.562 26.8912L148.556 34.783Z" fill="black"/>
<path d="M120.03 11.6602H131.087C131.506 11.7741 132.33 11.8676 132.768 11.943C137.333 12.7304 139.951 15.9189 139.891 20.5755C139.862 22.8368 139.394 25.0787 137.704 26.7554C134.624 29.8106 130.184 29.4543 126.204 29.4727C126.164 30.3813 126.203 31.4116 126.193 32.3318C126.167 34.7377 126.235 37.1871 126.175 39.5896C124.215 39.5917 121.979 39.6468 120.041 39.573C119.948 36.2838 120.025 32.6373 120.025 29.3261L120.03 11.6602ZM126.186 25.0055C126.903 25.0187 127.62 25.0245 128.337 25.0228C129.906 25.024 131.435 25.0366 132.696 23.9422C133.54 23.2025 133.855 22.2445 133.924 21.1437C133.977 20.3076 133.904 19.3345 133.56 18.5597C132.502 16.1779 129.542 16.4688 127.401 16.4667C126.994 16.4663 126.6 16.4721 126.201 16.4752C126.162 19.2743 126.262 22.2329 126.186 25.0055Z" fill="black"/>
<path d="M166.888 11.6602H173.323C173.377 12.8096 173.328 14.0534 173.342 15.2136C173.375 18.0387 173.294 20.9229 173.35 23.7419C176.615 19.6693 180.008 15.7098 183.283 11.6602H190.147L178.886 24.8727C180.074 26.4715 181.662 28.336 182.929 29.9089L190.693 39.5636C189.352 39.6136 187.95 39.5975 186.605 39.5948C185.506 39.5926 184.296 39.6215 183.205 39.5781C183.012 39.3995 182.502 38.7241 182.323 38.4951L180.591 36.2831C178.151 33.2334 175.738 30.1619 173.352 27.0691C173.291 31.2251 173.372 35.4283 173.333 39.5932L169.354 39.5934C168.593 39.5938 167.636 39.6196 166.888 39.5639C166.839 35.8049 166.881 31.9519 166.881 28.1869L166.888 11.6602Z" fill="black"/>
<path d="M87.0653 11.6602H112.843C112.666 11.9469 111.21 13.3633 110.874 13.7004L105.998 18.5941L93.9405 30.7044C91.6609 33.0125 89.3691 35.3085 87.0653 37.5922V11.6602Z" fill="#91CFAD"/>
<path d="M162.29 29.0266C162.4 29.8766 162.511 32.0241 162.274 32.7894C162.233 32.2415 162.151 29.3785 162.29 29.0266Z" fill="black" fill-opacity="0.972549"/>
</g>
</g>
<defs>
<clipPath id="clip0_23_1072">
<rect width="192" height="52" fill="white"/>
</clipPath>
<clipPath id="clip1_23_1072">
<rect width="104" height="28" fill="white" transform="translate(87.0653 11.6602)"/>
</clipPath>
</defs>
</svg>
