<svg width="52" height="52" viewBox="0 0 52 52" fill="none" xmlns="http://www.w3.org/2000/svg">
<g clip-path="url(#clip0_23_1064)">
<path d="M25.5302 4.51917C26.7781 4.51917 27.7897 3.50752 27.7897 2.25959C27.7897 1.01165 26.7781 0 25.5302 0C24.2822 0 23.2706 1.01165 23.2706 2.25959C23.2706 3.50752 24.2822 4.51917 25.5302 4.51917Z" fill="#FF4747"/>
<path d="M37.534 31.5831C38.7851 31.5831 40.0361 32.1065 40.9553 33.0257V33.0512L41.2872 33.3831C42.4362 34.5831 42.9596 36.2555 42.717 37.9406C42.3851 40.3279 40.4702 42.2428 38.0829 42.6002C37.8021 42.6385 37.5212 42.664 37.2404 42.664C35.8617 42.664 34.5468 42.1534 33.5255 41.2215L33.168 40.864C32.1978 39.8938 31.6872 38.5917 31.7127 37.2895C31.7382 37.0853 31.7255 36.881 31.7127 36.6895C31.4957 33.6512 29.0446 31.1874 25.9935 30.9704C25.8659 30.9576 25.7254 30.9576 25.585 30.9576C25.3042 30.9576 25.0361 30.9321 24.7552 30.8938C23.7467 30.7533 22.802 30.3321 22.0105 29.6682C22.0063 29.664 22.002 29.6583 21.9977 29.6526C21.9892 29.6413 21.9807 29.6299 21.9722 29.6299L21.9212 29.5789C21.8956 29.5406 21.7935 29.4512 21.7935 29.4512L21.5254 29.1831L21.4616 29.1065C21.3594 28.9916 21.2573 28.864 21.1552 28.7363C21.0611 28.6108 20.9755 28.4768 20.8845 28.3342L20.8233 28.2384C20.5807 27.8427 20.1594 27.6129 19.7126 27.6129C19.2531 27.6129 18.8318 27.8555 18.602 28.2384C18.1296 29.0172 17.4786 29.6682 16.6999 30.1406C16.3169 30.3704 16.0743 30.8044 16.0743 31.2512C16.0743 31.698 16.3041 32.1321 16.6999 32.3619C18.3467 33.3576 19.3807 35.1704 19.3807 37.0981C19.3807 40.1491 16.9041 42.6257 13.853 42.6257C10.802 42.6257 8.32534 40.1491 8.32534 37.0981C8.32534 35.1704 9.34662 33.3576 11.0062 32.3619C11.3892 32.1321 11.6317 31.698 11.6317 31.2512C11.6317 30.8044 11.402 30.3704 11.0062 30.1406C9.35939 29.1448 8.32534 27.332 8.32534 25.4044C8.32534 23.4767 9.34662 21.6639 11.0062 20.6682C11.3892 20.4384 11.6317 20.0043 11.6317 19.5575C11.6317 19.1107 11.402 18.6767 11.0062 18.4469C9.35939 17.4511 8.32534 15.6384 8.32534 13.7107C8.32534 10.6596 10.802 8.18301 13.853 8.18301C16.9041 8.18301 19.3807 10.6596 19.3807 13.7107C19.3807 15.6384 18.3594 17.4511 16.6999 18.4469C16.3169 18.6767 16.0743 19.1107 16.0743 19.5575C16.0743 20.0043 16.3041 20.4384 16.6999 20.6682C17.4786 21.1405 18.1296 21.7916 18.602 22.5703C18.8318 22.9533 19.2531 23.1959 19.7126 23.1959C20.1722 23.1959 20.5807 22.9533 20.8233 22.5703C20.9254 22.3916 21.0403 22.2256 21.1552 22.0724C21.2573 21.9448 21.3595 21.8171 21.4743 21.6895L21.8446 21.3193C21.8629 21.2917 21.8813 21.2774 21.8949 21.2667L21.9025 21.2607C21.9047 21.2589 21.9066 21.2572 21.9084 21.2554C21.9339 21.2427 21.985 21.1916 21.985 21.1916C22.7892 20.515 23.7467 20.0809 24.7552 19.9405C25.0233 19.9022 25.2914 19.8767 25.5595 19.8767C25.6563 19.8767 25.7419 19.8729 25.8203 19.8695C25.8866 19.8666 25.9478 19.8639 26.0063 19.8639C29.0574 19.6469 31.5084 17.1958 31.7255 14.1447C31.7382 13.9533 31.7382 13.749 31.7382 13.5447C31.6999 12.2426 32.2233 10.9405 33.168 9.99579L33.551 9.61281C34.5468 8.69365 35.8744 8.17025 37.2532 8.17025C37.5212 8.17025 37.8021 8.19578 38.0829 8.23408C40.4702 8.59153 42.3723 10.5064 42.717 12.8937C42.9596 14.5788 42.4362 16.2511 41.2744 17.4767L40.9681 17.7831C40.0489 18.7022 38.7978 19.2256 37.5468 19.2256H37.1255C33.9595 19.2895 31.317 21.7916 31.0744 24.932V25.8767C31.3042 29.0172 33.9595 31.5193 37.1127 31.5831H37.534Z" fill="#FF4747"/>
<path d="M29.4141 37.1619C29.4141 39.3052 27.6766 41.0428 25.5332 41.0428C23.3899 41.0428 21.6524 39.3052 21.6524 37.1619C21.6524 35.0186 23.3899 33.281 25.5332 33.281C27.6766 33.281 29.4141 35.0186 29.4141 37.1619Z" fill="#FF4747"/>
<path d="M37.1623 29.4129C39.3056 29.4129 41.0432 27.6754 41.0432 25.532C41.0432 23.3887 39.3056 21.6512 37.1623 21.6512C35.019 21.6512 33.2814 23.3887 33.2814 25.532C33.2814 27.6754 35.019 29.4129 37.1623 29.4129Z" fill="#FF4747"/>
<path d="M51.0653 25.5321C51.0653 26.78 50.0536 27.7916 48.8057 27.7916C47.5578 27.7916 46.5461 26.78 46.5461 25.5321C46.5461 24.2841 47.5578 23.2725 48.8057 23.2725C50.0536 23.2725 51.0653 24.2841 51.0653 25.5321Z" fill="#FF4747"/>
<path d="M2.25959 27.7916C3.50752 27.7916 4.51917 26.78 4.51917 25.5321C4.51917 24.2841 3.50752 23.2725 2.25959 23.2725C1.01165 23.2725 0 24.2841 0 25.5321C0 26.78 1.01165 27.7916 2.25959 27.7916Z" fill="#FF4747"/>
<path d="M27.7897 48.8045C27.7897 50.0524 26.7781 51.0641 25.5302 51.0641C24.2822 51.0641 23.2706 50.0524 23.2706 48.8045C23.2706 47.5566 24.2822 46.5449 25.5302 46.5449C26.7781 46.5449 27.7897 47.5566 27.7897 48.8045Z" fill="#FF4747"/>
<path d="M29.4141 13.9022C29.4141 16.0456 27.6766 17.7831 25.5332 17.7831C23.3899 17.7831 21.6524 16.0456 21.6524 13.9022C21.6524 11.7589 23.3899 10.0213 25.5332 10.0213C27.6766 10.0213 29.4141 11.7589 29.4141 13.9022Z" fill="#FF4747"/>
</g>
<defs>
<clipPath id="clip0_23_1064">
<rect width="52" height="52" fill="white"/>
</clipPath>
</defs>
</svg>
