<svg width="297" height="52" viewBox="0 0 297 52" fill="none" xmlns="http://www.w3.org/2000/svg">
<g clip-path="url(#clip0_23_1066)">
<path d="M92.9967 12.8682C100.172 12.8682 105.979 18.5745 105.979 25.5957C105.979 32.617 100.198 38.3623 92.9967 38.3623C85.796 38.3621 80.0026 32.6552 80.0026 25.5957C80.0027 18.5363 85.8217 12.8684 92.9967 12.8682ZM139.247 12.8682C146.422 12.8682 152.242 18.5745 152.242 25.5957C152.242 32.617 146.46 38.3622 139.247 38.3623C132.033 38.3623 126.252 32.6553 126.252 25.5957C126.252 18.5362 132.071 12.8682 139.247 12.8682ZM197.721 12.8301C201.123 12.8302 204.462 13.8898 206.713 15.6387V21.4473C204.5 19.2643 201.199 17.9238 197.848 17.9238C192.733 17.924 189.228 21.0257 189.228 25.6084C189.228 30.1913 192.758 33.2937 197.848 33.2939C199.102 33.2939 200.394 33 201.418 32.4639V28.2383H196.033V23.4893H206.713V35.6934C204.525 37.3402 201.161 38.3623 197.785 38.3623C189.817 38.3623 183.831 32.8468 183.831 25.5957H183.843C183.844 18.3319 189.83 12.8301 197.721 12.8301ZM241.17 12.8682C248.345 12.8682 254.165 18.5745 254.165 25.5957C254.165 32.617 248.383 38.3623 241.17 38.3623C233.956 38.3621 228.175 32.6552 228.175 25.5957C228.176 18.5363 233.995 12.8684 241.17 12.8682ZM167.577 12.8301C170.71 12.8301 173.69 13.8894 175.878 15.7275V21.958C173.665 19.3793 170.723 17.8721 167.679 17.8721C163.19 17.8721 159.775 21.2043 159.775 25.5957C159.775 29.9872 163.152 33.3447 167.679 33.3447C170.723 33.3447 173.69 31.7875 175.878 29.2217V35.4512C173.69 37.3022 170.723 38.3496 167.577 38.3496C160.212 38.3495 154.356 32.7101 154.352 25.5898C154.356 18.4695 160.199 12.8302 167.577 12.8301ZM261.238 28.085C261.238 31.1233 263.349 33.2939 266.329 33.2939C269.309 33.2938 271.419 31.1104 271.419 28.085V13.2129H276.778V28.0596C276.778 33.9702 272.353 38.3496 266.341 38.3496C260.33 38.3496 255.892 33.9575 255.892 28.0596H255.879V13.2129H261.238V28.085ZM67.0729 23.3486L76.525 13.2256H83.5338L71.9332 25.5957L83.5338 37.9658H76.525L67.0729 27.8428V37.9531H61.7135V13.2256H67.0729V23.3486ZM113.322 23.3486L122.774 13.2256H129.783L118.182 25.5957L129.783 37.9658H122.774L113.322 27.8428V37.9531H107.963V13.2256H113.322V23.3486ZM218.379 13.2256C223.072 13.2258 226.679 16.7879 226.679 21.2432C226.679 24.2813 224.99 26.9241 222.42 28.3027L229.851 37.9658H223.405L216.766 29.2852H214.784V37.9658H209.425V13.2256H218.379ZM287.968 13.2256C292.701 13.2256 296.269 16.749 296.269 21.3447C296.269 25.9405 292.662 29.4258 287.968 29.4258H284.362V37.9658H279.003V13.2256H287.968ZM92.9967 17.8721C88.8018 17.8723 85.4255 21.3066 85.4254 25.5957C85.4254 29.8849 88.7634 33.3445 92.9967 33.3447C97.2303 33.3447 100.594 29.8851 100.594 25.5957C100.594 21.3064 97.1918 17.8721 92.9967 17.8721ZM139.247 17.8721C135.052 17.8721 131.675 21.3064 131.674 25.5957C131.674 29.8851 135.013 33.3447 139.247 33.3447C143.48 33.3447 146.844 29.885 146.844 25.5957C146.844 21.3065 143.442 17.8721 139.247 17.8721ZM241.17 17.8721C236.975 17.8723 233.598 21.3066 233.598 25.5957C233.598 29.8849 236.936 33.3445 241.17 33.3447C245.403 33.3447 248.767 29.8851 248.767 25.5957C248.767 21.3064 245.365 17.8721 241.17 17.8721ZM214.771 24.5361H217.982C219.939 24.536 221.32 23.1448 221.32 21.3066C221.32 19.4684 219.964 18.1408 217.982 18.1406H214.771V24.5361ZM284.375 24.5107H287.547C289.529 24.5106 290.922 23.2214 290.922 21.3066C290.922 19.3918 289.529 18.1407 287.547 18.1406H284.375V24.5107Z" fill="black"/>
<path d="M25.5302 4.58314C26.7781 4.58314 27.7897 3.57149 27.7897 2.32355C27.7897 1.07562 26.7781 0.0639648 25.5302 0.0639648C24.2822 0.0639648 23.2706 1.07562 23.2706 2.32355C23.2706 3.57149 24.2822 4.58314 25.5302 4.58314Z" fill="#FF4747"/>
<path d="M37.534 31.6471C38.7851 31.6471 40.0361 32.1705 40.9553 33.0897V33.1152L41.2872 33.4471C42.4362 34.6471 42.9596 36.3195 42.717 38.0046C42.3851 40.3918 40.4702 42.3067 38.0829 42.6642C37.8021 42.7025 37.5212 42.728 37.2404 42.728C35.8617 42.728 34.5468 42.2174 33.5255 41.2854L33.168 40.928C32.1978 39.9578 31.6872 38.6556 31.7127 37.3535C31.7382 37.1493 31.7255 36.945 31.7127 36.7535C31.4957 33.7152 29.0446 31.2514 25.9935 31.0343C25.8659 31.0216 25.7254 31.0216 25.585 31.0216C25.3042 31.0216 25.0361 30.996 24.7552 30.9577C23.7467 30.8173 22.802 30.396 22.0105 29.7322C22.0063 29.7279 22.002 29.7223 21.9977 29.7166C21.9892 29.7052 21.9807 29.6939 21.9722 29.6939L21.9212 29.6428C21.8956 29.6045 21.7935 29.5152 21.7935 29.5152L21.5254 29.2471L21.4616 29.1705C21.3594 29.0556 21.2573 28.9279 21.1552 28.8003C21.0611 28.6748 20.9755 28.5408 20.8845 28.3981L20.8233 28.3024C20.5807 27.9067 20.1594 27.6769 19.7126 27.6769C19.2531 27.6769 18.8318 27.9194 18.602 28.3024C18.1296 29.0811 17.4786 29.7322 16.6999 30.2045C16.3169 30.4343 16.0743 30.8684 16.0743 31.3152C16.0743 31.762 16.3041 32.196 16.6999 32.4258C18.3467 33.4216 19.3807 35.2343 19.3807 37.162C19.3807 40.2131 16.9041 42.6897 13.853 42.6897C10.802 42.6897 8.32534 40.2131 8.32534 37.162C8.32534 35.2343 9.34662 33.4216 11.0062 32.4258C11.3892 32.196 11.6317 31.762 11.6317 31.3152C11.6317 30.8684 11.402 30.4343 11.0062 30.2045C9.35939 29.2088 8.32534 27.396 8.32534 25.4683C8.32534 23.5407 9.34662 21.7279 11.0062 20.7321C11.3892 20.5024 11.6317 20.0683 11.6317 19.6215C11.6317 19.1747 11.402 18.7406 11.0062 18.5109C9.35939 17.5151 8.32534 15.7023 8.32534 13.7747C8.32534 10.7236 10.802 8.24698 13.853 8.24698C16.9041 8.24698 19.3807 10.7236 19.3807 13.7747C19.3807 15.7023 18.3594 17.5151 16.6999 18.5109C16.3169 18.7406 16.0743 19.1747 16.0743 19.6215C16.0743 20.0683 16.3041 20.5024 16.6999 20.7321C17.4786 21.2045 18.1296 21.8556 18.602 22.6343C18.8318 23.0173 19.2531 23.2598 19.7126 23.2598C20.1722 23.2598 20.5807 23.0173 20.8233 22.6343C20.9254 22.4556 21.0403 22.2896 21.1552 22.1364C21.2573 22.0087 21.3595 21.8811 21.4743 21.7534L21.8446 21.3832C21.8629 21.3557 21.8813 21.3413 21.8949 21.3307L21.9025 21.3247C21.9047 21.3229 21.9066 21.3211 21.9084 21.3194C21.9339 21.3066 21.985 21.2556 21.985 21.2556C22.7892 20.579 23.7467 20.1449 24.7552 20.0045C25.0233 19.9662 25.2914 19.9407 25.5595 19.9407C25.6563 19.9407 25.7419 19.9369 25.8203 19.9335C25.8866 19.9306 25.9478 19.9279 26.0063 19.9279C29.0574 19.7109 31.5084 17.2598 31.7255 14.2087C31.7382 14.0172 31.7382 13.813 31.7382 13.6087C31.6999 12.3066 32.2233 11.0044 33.168 10.0598L33.551 9.67677C34.5468 8.75762 35.8744 8.23421 37.2532 8.23421C37.5212 8.23421 37.8021 8.25974 38.0829 8.29804C40.4702 8.65549 42.3723 10.5704 42.717 12.9576C42.9596 14.6428 42.4362 16.3151 41.2744 17.5406L40.9681 17.847C40.0489 18.7662 38.7978 19.2896 37.5468 19.2896H37.1255C33.9595 19.3534 31.317 21.8556 31.0744 24.996V25.9407C31.3042 29.0811 33.9595 31.5833 37.1127 31.6471H37.534Z" fill="#FF4747"/>
<path d="M29.4141 37.2259C29.4141 39.3692 27.6766 41.1067 25.5332 41.1067C23.3899 41.1067 21.6524 39.3692 21.6524 37.2259C21.6524 35.0825 23.3899 33.345 25.5332 33.345C27.6766 33.345 29.4141 35.0825 29.4141 37.2259Z" fill="#FF4747"/>
<path d="M37.1623 29.4769C39.3056 29.4769 41.0432 27.7393 41.0432 25.596C41.0432 23.4527 39.3056 21.7151 37.1623 21.7151C35.019 21.7151 33.2814 23.4527 33.2814 25.596C33.2814 27.7393 35.019 29.4769 37.1623 29.4769Z" fill="#FF4747"/>
<path d="M51.0653 25.596C51.0653 26.844 50.0536 27.8556 48.8057 27.8556C47.5578 27.8556 46.5461 26.844 46.5461 25.596C46.5461 24.3481 47.5578 23.3364 48.8057 23.3364C50.0536 23.3364 51.0653 24.3481 51.0653 25.596Z" fill="#FF4747"/>
<path d="M2.25959 27.8556C3.50752 27.8556 4.51917 26.844 4.51917 25.596C4.51917 24.3481 3.50752 23.3364 2.25959 23.3364C1.01165 23.3364 0 24.3481 0 25.596C0 26.844 1.01165 27.8556 2.25959 27.8556Z" fill="#FF4747"/>
<path d="M27.7897 48.8685C27.7897 50.1164 26.7781 51.128 25.5302 51.128C24.2822 51.128 23.2706 50.1164 23.2706 48.8685C23.2706 47.6205 24.2822 46.6089 25.5302 46.6089C26.7781 46.6089 27.7897 47.6205 27.7897 48.8685Z" fill="#FF4747"/>
<path d="M29.4141 13.9662C29.4141 16.1095 27.6766 17.847 25.5332 17.847C23.3899 17.847 21.6524 16.1095 21.6524 13.9662C21.6524 11.8228 23.3899 10.0853 25.5332 10.0853C27.6766 10.0853 29.4141 11.8228 29.4141 13.9662Z" fill="#FF4747"/>
</g>
<defs>
<clipPath id="clip0_23_1066">
<rect width="297" height="52" fill="white"/>
</clipPath>
</defs>
</svg>
