<svg width="437" height="52" viewBox="0 0 437 52" fill="none" xmlns="http://www.w3.org/2000/svg">
<g clip-path="url(#clip0_23_1307)">
<path d="M92.9967 12.8042C100.172 12.8042 105.979 18.5105 105.979 25.5317C105.979 32.5531 100.198 38.2983 92.9967 38.2983C85.796 38.2981 80.0026 32.5912 80.0026 25.5317C80.0027 18.4724 85.8217 12.8044 92.9967 12.8042ZM139.247 12.8042C146.422 12.8043 152.242 18.5106 152.242 25.5317C152.242 32.553 146.46 38.2983 139.247 38.2983C132.033 38.2983 126.252 32.5913 126.252 25.5317C126.252 18.4722 132.071 12.8042 139.247 12.8042ZM197.721 12.7661C201.123 12.7662 204.462 13.8258 206.713 15.5747V21.3833C204.5 19.2003 201.199 17.8599 197.848 17.8599C192.733 17.8601 189.228 20.9617 189.228 25.5444C189.228 30.1273 192.758 33.2298 197.848 33.23C199.102 33.23 200.394 32.9361 201.418 32.3999V28.1743H196.033V23.4253H206.713V35.6294C204.525 37.2762 201.161 38.2983 197.785 38.2983C189.817 38.2983 183.831 32.7828 183.831 25.5317H183.843C183.844 18.268 189.83 12.7661 197.721 12.7661ZM241.17 12.8042C248.345 12.8042 254.165 18.5105 254.165 25.5317C254.165 32.5531 248.383 38.2983 241.17 38.2983C233.956 38.2981 228.175 32.5912 228.175 25.5317C228.176 18.4724 233.995 12.8044 241.17 12.8042ZM167.577 12.7661C170.71 12.7661 173.69 13.8254 175.878 15.6636V21.894C173.665 19.3153 170.723 17.8081 167.679 17.8081C163.19 17.8081 159.775 21.1403 159.775 25.5317C159.775 29.9232 163.152 33.2808 167.679 33.2808C170.723 33.2808 173.69 31.7235 175.878 29.1577V35.3872C173.69 37.2382 170.723 38.2856 167.577 38.2856C160.212 38.2855 154.356 32.6461 154.352 25.5259C154.356 18.4055 160.199 12.7662 167.577 12.7661ZM261.238 28.021C261.238 31.0593 263.349 33.23 266.329 33.23C269.309 33.2299 271.419 31.0465 271.419 28.021V13.1489H276.778V27.9956C276.778 33.9062 272.353 38.2856 266.341 38.2856C260.33 38.2856 255.892 33.8935 255.892 27.9956H255.879V13.1489H261.238V28.021ZM67.0729 23.2847L76.525 13.1616H83.5338L71.9332 25.5317L83.5338 37.9019H76.525L67.0729 27.7788V37.8892H61.7135V13.1616H67.0729V23.2847ZM113.322 23.2847L122.774 13.1616H129.783L118.182 25.5317L129.783 37.9019H122.774L113.322 27.7788V37.8892H107.963V13.1616H113.322V23.2847ZM218.379 13.1616C223.072 13.1618 226.679 16.724 226.679 21.1792C226.679 24.2173 224.99 26.8601 222.42 28.2388L229.851 37.9019H223.405L216.766 29.2212H214.784V37.9019H209.425V13.1616H218.379ZM287.968 13.1616C292.701 13.1616 296.269 16.6851 296.269 21.2808C296.269 25.8765 292.662 29.3618 287.968 29.3618H284.362V37.9019H279.003V13.1616H287.968ZM92.9967 17.8081C88.8018 17.8084 85.4255 21.2426 85.4254 25.5317C85.4254 29.821 88.7634 33.2805 92.9967 33.2808C97.2303 33.2808 100.594 29.8211 100.594 25.5317C100.594 21.2425 97.1918 17.8081 92.9967 17.8081ZM139.247 17.8081C135.052 17.8081 131.675 21.2425 131.674 25.5317C131.674 29.8211 135.013 33.2808 139.247 33.2808C143.48 33.2807 146.844 29.8211 146.844 25.5317C146.844 21.2425 143.442 17.8082 139.247 17.8081ZM241.17 17.8081C236.975 17.8083 233.598 21.2426 233.598 25.5317C233.598 29.821 236.936 33.2805 241.17 33.2808C245.403 33.2808 248.767 29.8211 248.767 25.5317C248.767 21.2425 245.365 17.8081 241.17 17.8081ZM214.771 24.4722H217.982C219.939 24.472 221.32 23.0808 221.32 21.2427C221.32 19.4045 219.964 18.0768 217.982 18.0767H214.771V24.4722ZM284.375 24.4468H287.547C289.529 24.4467 290.922 23.1574 290.922 21.2427C290.922 19.3279 289.529 18.0768 287.547 18.0767H284.375V24.4468Z" fill="black"/>
<path d="M25.5302 4.51917C26.7781 4.51917 27.7897 3.50752 27.7897 2.25959C27.7897 1.01165 26.7781 0 25.5302 0C24.2822 0 23.2706 1.01165 23.2706 2.25959C23.2706 3.50752 24.2822 4.51917 25.5302 4.51917Z" fill="#FF4747"/>
<path d="M37.534 31.5831C38.7851 31.5831 40.0361 32.1065 40.9553 33.0257V33.0512L41.2872 33.3831C42.4362 34.5831 42.9596 36.2555 42.717 37.9406C42.3851 40.3279 40.4702 42.2428 38.0829 42.6002C37.8021 42.6385 37.5212 42.664 37.2404 42.664C35.8617 42.664 34.5468 42.1534 33.5255 41.2215L33.168 40.864C32.1978 39.8938 31.6872 38.5917 31.7127 37.2895C31.7382 37.0853 31.7255 36.881 31.7127 36.6895C31.4957 33.6512 29.0446 31.1874 25.9935 30.9704C25.8659 30.9576 25.7254 30.9576 25.585 30.9576C25.3042 30.9576 25.0361 30.9321 24.7552 30.8938C23.7467 30.7533 22.802 30.3321 22.0105 29.6682C22.0063 29.664 22.002 29.6583 21.9977 29.6526C21.9892 29.6413 21.9807 29.6299 21.9722 29.6299L21.9212 29.5789C21.8956 29.5406 21.7935 29.4512 21.7935 29.4512L21.5254 29.1831L21.4616 29.1065C21.3594 28.9916 21.2573 28.864 21.1552 28.7363C21.0611 28.6108 20.9755 28.4768 20.8845 28.3342L20.8233 28.2384C20.5807 27.8427 20.1594 27.6129 19.7126 27.6129C19.2531 27.6129 18.8318 27.8555 18.602 28.2384C18.1296 29.0172 17.4786 29.6682 16.6999 30.1406C16.3169 30.3704 16.0743 30.8044 16.0743 31.2512C16.0743 31.698 16.3041 32.1321 16.6999 32.3619C18.3467 33.3576 19.3807 35.1704 19.3807 37.0981C19.3807 40.1491 16.9041 42.6257 13.853 42.6257C10.802 42.6257 8.32534 40.1491 8.32534 37.0981C8.32534 35.1704 9.34662 33.3576 11.0062 32.3619C11.3892 32.1321 11.6317 31.698 11.6317 31.2512C11.6317 30.8044 11.402 30.3704 11.0062 30.1406C9.35939 29.1448 8.32534 27.332 8.32534 25.4044C8.32534 23.4767 9.34662 21.6639 11.0062 20.6682C11.3892 20.4384 11.6317 20.0043 11.6317 19.5575C11.6317 19.1107 11.402 18.6767 11.0062 18.4469C9.35939 17.4511 8.32534 15.6384 8.32534 13.7107C8.32534 10.6596 10.802 8.18301 13.853 8.18301C16.9041 8.18301 19.3807 10.6596 19.3807 13.7107C19.3807 15.6384 18.3594 17.4511 16.6999 18.4469C16.3169 18.6767 16.0743 19.1107 16.0743 19.5575C16.0743 20.0043 16.3041 20.4384 16.6999 20.6682C17.4786 21.1405 18.1296 21.7916 18.602 22.5703C18.8318 22.9533 19.2531 23.1959 19.7126 23.1959C20.1722 23.1959 20.5807 22.9533 20.8233 22.5703C20.9254 22.3916 21.0403 22.2256 21.1552 22.0724C21.2573 21.9448 21.3595 21.8171 21.4743 21.6895L21.8446 21.3193C21.8629 21.2917 21.8813 21.2774 21.8949 21.2667L21.9025 21.2607C21.9047 21.2589 21.9066 21.2572 21.9084 21.2554C21.9339 21.2427 21.985 21.1916 21.985 21.1916C22.7892 20.515 23.7467 20.0809 24.7552 19.9405C25.0233 19.9022 25.2914 19.8767 25.5595 19.8767C25.6563 19.8767 25.7419 19.8729 25.8203 19.8695C25.8866 19.8666 25.9478 19.8639 26.0063 19.8639C29.0574 19.6469 31.5084 17.1958 31.7255 14.1447C31.7382 13.9533 31.7382 13.749 31.7382 13.5447C31.6999 12.2426 32.2233 10.9405 33.168 9.99579L33.551 9.61281C34.5468 8.69365 35.8744 8.17025 37.2532 8.17025C37.5212 8.17025 37.8021 8.19578 38.0829 8.23408C40.4702 8.59153 42.3723 10.5064 42.717 12.8937C42.9596 14.5788 42.4362 16.2511 41.2744 17.4767L40.9681 17.7831C40.0489 18.7022 38.7978 19.2256 37.5468 19.2256H37.1255C33.9595 19.2895 31.317 21.7916 31.0744 24.932V25.8767C31.3042 29.0172 33.9595 31.5193 37.1127 31.5831H37.534Z" fill="#FF4747"/>
<path d="M29.4141 37.1619C29.4141 39.3052 27.6766 41.0428 25.5332 41.0428C23.3899 41.0428 21.6524 39.3052 21.6524 37.1619C21.6524 35.0186 23.3899 33.281 25.5332 33.281C27.6766 33.281 29.4141 35.0186 29.4141 37.1619Z" fill="#FF4747"/>
<path d="M37.1623 29.4129C39.3056 29.4129 41.0432 27.6754 41.0432 25.532C41.0432 23.3887 39.3056 21.6512 37.1623 21.6512C35.019 21.6512 33.2814 23.3887 33.2814 25.532C33.2814 27.6754 35.019 29.4129 37.1623 29.4129Z" fill="#FF4747"/>
<path d="M51.0653 25.5321C51.0653 26.78 50.0536 27.7916 48.8057 27.7916C47.5578 27.7916 46.5461 26.78 46.5461 25.5321C46.5461 24.2841 47.5578 23.2725 48.8057 23.2725C50.0536 23.2725 51.0653 24.2841 51.0653 25.5321Z" fill="#FF4747"/>
<path d="M2.25959 27.7916C3.50752 27.7916 4.51917 26.78 4.51917 25.5321C4.51917 24.2841 3.50752 23.2725 2.25959 23.2725C1.01165 23.2725 0 24.2841 0 25.5321C0 26.78 1.01165 27.7916 2.25959 27.7916Z" fill="#FF4747"/>
<path d="M27.7897 48.8045C27.7897 50.0524 26.7781 51.0641 25.5302 51.0641C24.2822 51.0641 23.2706 50.0524 23.2706 48.8045C23.2706 47.5566 24.2822 46.5449 25.5302 46.5449C26.7781 46.5449 27.7897 47.5566 27.7897 48.8045Z" fill="#FF4747"/>
<path d="M29.4141 13.9022C29.4141 16.0456 27.6766 17.7831 25.5332 17.7831C23.3899 17.7831 21.6524 16.0456 21.6524 13.9022C21.6524 11.7589 23.3899 10.0213 25.5332 10.0213C27.6766 10.0213 29.4141 11.7589 29.4141 13.9022Z" fill="#FF4747"/>
<path d="M318.247 20L320.269 21.9724L316.252 25.9985L320.215 30.0005L318.247 32L314.23 28.0281L310.264 31.9729L308.296 29.9734L312.205 25.9985L308.269 22.0266L310.264 20L314.23 23.9449L318.247 20Z" fill="black"/>
<g clip-path="url(#clip1_23_1307)">
<path d="M359.881 13.8735C360.026 14.0639 359.974 18.2266 359.974 18.7514L359.975 26.8341L359.974 35.177C359.974 36.7448 360.001 38.4153 359.956 39.9763C359.3 39.8985 357.871 39.9389 357.141 39.9392L351.874 39.9406L334.14 39.9378L334.062 39.922C334.091 39.709 335.673 38.2157 335.944 37.9407L341.356 32.5004L355.452 18.3438L358.234 15.5532C358.754 15.0327 359.407 14.4152 359.881 13.8735Z" fill="#2A8288"/>
<path d="M387.737 12H405.238L405.236 16.9336L393.79 16.9404C393.769 18.8853 393.759 20.8304 393.76 22.7754C397.767 22.9009 402.486 22.2171 405.651 25.4604C406.726 26.5617 407.188 27.8867 407.493 29.3665C407.355 29.7184 407.437 32.5814 407.477 33.1293C407.477 33.1334 407.477 33.1374 407.477 33.1414C406.889 37.4481 403.118 39.6875 399.055 39.8729C396.244 40.0012 393.437 39.9041 390.623 39.9354C389.673 39.9459 388.682 39.9615 387.739 39.9093C387.654 36.483 387.732 32.7005 387.731 29.2508L387.737 12ZM393.76 35.1228C394.586 35.1407 395.413 35.1479 396.239 35.1446C397.95 35.1448 399.35 35.2087 400.741 34.0961C402.099 32.6802 402.24 29.7514 400.801 28.3645C399.078 26.705 395.925 27.4011 393.766 27.231L393.76 35.1228Z" fill="black"/>
<path d="M365.234 12H376.29C376.71 12.114 377.534 12.2074 377.971 12.2828C382.537 13.0702 385.155 16.2587 385.095 20.9153C385.065 23.1766 384.598 25.4185 382.907 27.0953C379.828 30.1505 375.388 29.7941 371.407 29.8126C371.368 30.7212 371.407 31.7515 371.397 32.6717C371.371 35.0776 371.439 37.527 371.379 39.9295C369.419 39.9316 367.183 39.9866 365.245 39.9129C365.152 36.6236 365.229 32.9772 365.229 29.6659L365.234 12ZM371.39 25.3453C372.107 25.3586 372.824 25.3643 373.541 25.3627C375.11 25.3639 376.639 25.3764 377.899 24.282C378.744 23.5423 379.059 22.5844 379.128 21.4836C379.181 20.6474 379.108 19.6743 378.764 18.8996C377.706 16.5177 374.746 16.8086 372.604 16.8065C372.198 16.8061 371.804 16.8119 371.405 16.815C371.366 19.6142 371.466 22.5728 371.39 25.3453Z" fill="black"/>
<path d="M412.092 12H418.527C418.581 13.1494 418.532 14.3932 418.546 15.5534C418.579 18.3785 418.498 21.2627 418.554 24.0818C421.818 20.0092 425.212 16.0496 428.486 12H435.351L424.09 25.2125C425.278 26.8114 426.866 28.6759 428.133 30.2487L435.897 39.9034C434.556 39.9535 433.154 39.9373 431.809 39.9346C430.71 39.9324 429.5 39.9613 428.409 39.9179C428.216 39.7394 427.706 39.064 427.527 38.8349L425.795 36.6229C423.355 33.5733 420.941 30.5018 418.556 27.4089C418.495 31.565 418.575 35.7682 418.536 39.933L414.558 39.9333C413.796 39.9336 412.84 39.9595 412.092 39.9037C412.042 36.1447 412.085 32.2918 412.085 28.5268L412.092 12Z" fill="black"/>
<path d="M332.269 12H358.047C357.869 12.2867 356.414 13.7031 356.078 14.0402L351.201 18.934L339.144 31.0442C336.865 33.3523 334.573 35.6483 332.269 37.9321V12Z" fill="#91CFAD"/>
<path d="M407.494 29.3665C407.604 30.2165 407.715 32.364 407.478 33.1293C407.437 32.5813 407.355 29.7183 407.494 29.3665Z" fill="black" fill-opacity="0.972549"/>
</g>
</g>
<defs>
<clipPath id="clip0_23_1307">
<rect width="437" height="52" fill="white"/>
</clipPath>
<clipPath id="clip1_23_1307">
<rect width="104" height="28" fill="white" transform="translate(332.269 12)"/>
</clipPath>
</defs>
</svg>
